<?xml version="1.0" encoding="UTF-8"?>
<!DOCTYPE svg PUBLIC "-//W3C//DTD SVG 1.0//EN" "http://www.w3.org/TR/2001/REC-SVG-20010904/DTD/svg10.dtd">
<!-- Creator: CorelDRAW 2020 (64-Bit) -->
<svg xmlns="http://www.w3.org/2000/svg" xml:space="preserve" width="210mm" height="297mm" version="1.0" style="shape-rendering:geometricPrecision; text-rendering:geometricPrecision; image-rendering:optimizeQuality; fill-rule:evenodd; clip-rule:evenodd"
viewBox="0 0 21000 29700"
 xmlns:xlink="http://www.w3.org/1999/xlink"
 xmlns:xodm="http://www.corel.com/coreldraw/odm/2003">
 <defs>
  <style type="text/css">
   <![CDATA[
    .fil20 {fill:none}
    .fil19 {fill:#D2D3D5}
    .fil14 {fill:#00AA63;fill-rule:nonzero}
    .fil13 {fill:#00DD80;fill-rule:nonzero}
    .fil4 {fill:#3397E8;fill-rule:nonzero}
    .fil1 {fill:#35A872;fill-rule:nonzero}
    .fil8 {fill:#38B37A;fill-rule:nonzero}
    .fil7 {fill:#3DC285;fill-rule:nonzero}
    .fil18 {fill:#6FA5AA;fill-rule:nonzero}
    .fil2 {fill:#757C80;fill-rule:nonzero}
    .fil6 {fill:#7E8589;fill-rule:nonzero}
    .fil5 {fill:#A3D4F7;fill-rule:nonzero}
    .fil3 {fill:#AD6643;fill-rule:nonzero}
    .fil10 {fill:#B1BD70;fill-rule:nonzero}
    .fil17 {fill:#B4D2D7;fill-rule:nonzero}
    .fil9 {fill:#CFDB8C;fill-rule:nonzero}
    .fil0 {fill:#DADCDE;fill-rule:nonzero}
    .fil16 {fill:#E1EBF0;fill-rule:nonzero}
    .fil12 {fill:#F7B030;fill-rule:nonzero}
    .fil11 {fill:#FFD33A;fill-rule:nonzero}
    .fil15 {fill:white;fill-rule:nonzero}
   ]]>
  </style>
   <clipPath id="id0">
    <path d="M-62342.97 -18876.99c4676,0 8466.66,3790.66 8466.66,8466.67 0,4676.01 -3790.66,8466.66 -8466.66,8466.66 -4676.01,0 -8466.67,-3790.65 -8466.67,-8466.66 0,-4676.01 3790.66,-8466.67 8466.67,-8466.67z"/>
   </clipPath>
    <clipPath id="id1">
     <path d="M-56516.33 -16552.9c861.75,817.7 1551.14,1814.99 2009.27,2931.66l0 6421.84c-458.08,1116.7 -1147.59,2113.89 -2009.24,2931.63l-11653.35 0c-861.73,-817.68 -1551.09,-1814.93 -2009.21,-2931.56l0 -6421.98c458.13,-1116.63 1147.5,-2113.91 2009.24,-2931.59l11653.29 0z"/>
    </clipPath>
    <clipPath id="id2">
     <path d="M-62342.97 -18876.99c4676,0 8466.66,3790.66 8466.66,8466.67 0,4676.01 -3790.66,8466.66 -8466.66,8466.66 -4676.01,0 -8466.67,-3790.65 -8466.67,-8466.66 0,-4676.01 3790.66,-8466.67 8466.67,-8466.67z"/>
    </clipPath>
 </defs>
 <g id="Layer_x0020_1">
  <metadata id="CorelCorpID_0Corel-Layer"/>
  <g id="beach.svg">
   <polygon class="fil0" points="18750.9,13612.61 31027.56,13612.61 31027.56,15305.94 18750.9,15305.94 "/>
   <path class="fil1" d="M25665.86 10225.94c-330.73,-330.73 -62.6,-1134.77 598.67,-1796.04 661.27,-661.27 1465.39,-929.32 1796.04,-598.67l-2394.71 2394.71z"/>
   <path class="fil2" d="M26794.23 12342.61c-1208.59,0 -2253.48,517.92 -2751.67,1270l5503.34 0c-498.18,-752.08 -1543.08,-1270 -2751.67,-1270z"/>
   <path class="fil3" d="M29086.13 13612.61c163.52,-614.68 248.12,-1249.59 248.12,-1886.29 0,-6.23 0,-12.47 0,-18.7 0,-1191.26 -276.44,-2290.6 -742.95,-3175l-950.4 -0.01c535.36,806.77 867.52,1931.22 867.52,3175 0.05,8.58 0.05,18.07 0.05,26.77 0,636.02 -94.14,1269.67 -278.46,1878l856.12 0.23z"/>
   <g>
    <path class="fil4" d="M27640.9 13612.61l-8890 0 0 1693.33 8890 0c935.2,0 1693.33,-379.07 1693.33,-846.67 0,-467.6 -758.14,-846.67 -1693.33,-846.67l0 0.01zm0 0l0 0 0 0z"/>
   </g>
   <path class="fil5" d="M27005.9 14459.28l-1693.34 0c-116.88,-0.01 -211.67,-94.8 -211.67,-211.68 0,-116.88 94.79,-211.67 211.67,-211.67l1693.34 0.01c116.88,-0.01 211.67,94.78 211.67,211.66 0,116.88 -94.79,211.67 -211.67,211.67l0 0.01z"/>
   <path class="fil5" d="M20655.9 14459.28l-1693.34 0c-116.87,-0.01 -211.66,-94.8 -211.66,-211.68 0,-116.88 94.79,-211.67 211.67,-211.67l1693.33 0.01c116.89,-0.01 211.68,94.78 211.68,211.66 0,116.88 -94.79,211.67 -211.67,211.67l-0.01 0.01z"/>
   <path class="fil5" d="M25100.9 15305.94l-846.67 0c-116.87,0 -211.66,-94.79 -211.66,-211.67 0,-116.88 94.79,-211.67 211.67,-211.67l846.66 0.01c116.88,-0.01 211.67,94.78 211.67,211.66 0,116.88 -94.79,211.67 -211.67,211.67z"/>
   <path class="fil5" d="M22984.23 15305.94l-2963.33 0c-116.87,0 -211.66,-94.79 -211.66,-211.67 0,-116.88 94.79,-211.67 211.67,-211.67l2963.32 0.01c116.89,-0.01 211.68,94.78 211.68,211.66 0,116.88 -94.79,211.67 -211.67,211.67l-0.01 0z"/>
   <path class="fil6" d="M24655.87 9628.83c-116.87,-0.01 -211.66,-94.8 -211.66,-211.68 0,-116.88 -94.79,-211.67 -211.67,-211.67 -116.88,0 -211.67,94.79 -211.67,211.67 0.01,116.88 -94.78,211.67 -211.66,211.67 -116.88,0 -211.67,-94.79 -211.67,-211.67 0.01,-116.88 -94.78,-211.67 -211.66,-211.67 -116.88,0 -211.67,94.79 -211.67,211.67 0,116.88 -94.79,211.67 -211.67,211.67 -116.88,0 -211.67,-94.79 -211.67,-211.67 0.01,-0.1 0.01,-0.25 0.01,-0.33 0,-350.46 284.21,-634.67 634.68,-634.67 156.29,0 307.31,57.79 423.61,162.09 116.38,-104.3 267.4,-162.09 423.69,-162.09 350.46,0 634.68,284.21 634.68,634.67 0,0.08 0,0.23 0,0.31 0.01,116.9 -94.78,211.69 -211.66,211.69l-0.01 0.01z"/>
   <path class="fil6" d="M24893.99 11295.7c-116.87,-0.01 -211.66,-94.8 -211.66,-211.68 0.01,-116.88 -94.78,-211.67 -211.66,-211.67 -116.88,0 -211.67,94.79 -211.67,211.67 0.01,116.88 -94.78,211.67 -211.66,211.67 -116.88,0 -211.67,-94.79 -211.67,-211.67 0,-116.88 -94.79,-211.67 -211.67,-211.67 -116.88,0 -211.67,94.79 -211.67,211.67 0.01,116.88 -94.78,211.67 -211.66,211.67 -116.88,0 -211.67,-94.79 -211.67,-211.67 0.01,-0.1 0.01,-0.25 0.01,-0.33 0,-350.46 284.21,-634.68 634.68,-634.68 156.29,0 307.31,57.8 423.61,162.1 116.38,-104.3 267.4,-162.1 423.69,-162.1 350.46,0 634.68,284.22 634.68,634.68 0,0.08 0,0.23 0,0.31 0,116.9 -94.79,211.69 -211.67,211.69l-0.01 0.01z"/>
   <path class="fil7" d="M27640.9 8532.61c0,-467.6 758.14,-846.67 1693.33,-846.67 935.19,0 1693.33,379.07 1693.33,846.67l-3386.66 0z"/>
   <path class="fil1" d="M27640.9 8532.61c-467.6,0 -846.67,-758.14 -846.67,-1693.33 0,-935.19 379.07,-1693.33 846.67,-1693.33l0 3386.66z"/>
   <path class="fil8" d="M27574.51 8528.96c-330.73,-330.73 -62.63,-1134.77 598.67,-1796.04 661.3,-661.27 1465.32,-929.32 1796.04,-598.67l-2394.71 2394.71z"/>
   <path class="fil7" d="M24254.23 8532.61c0,-467.6 758.14,-846.67 1693.33,-846.67 935.19,0 1693.33,379.07 1693.33,846.67l-3386.66 0z"/>
   <circle class="fil9" cx="27429.23" cy="8955.94" r="423.33"/>
   <circle class="fil10" cx="28275.9" cy="8955.94" r="423.33"/>
   <path class="fil5" d="M24042.56 14459.28l-2116.66 0c-116.87,-0.01 -211.66,-94.8 -211.66,-211.68 0,-116.88 94.79,-211.67 211.67,-211.67l2116.65 0.01c116.89,-0.01 211.68,94.78 211.68,211.66 0,116.88 -94.79,211.67 -211.67,211.67l-0.01 0.01z"/>
   <path class="fil6" d="M28487.56 11707.61c-1115.62,0 -2080.15,776.87 -2540,1905l5080 0c-459.85,-1128.13 -1424.38,-1905 -2540,-1905z"/>
   <circle class="fil11" cx="21925.9" cy="5357.61" r="846.66"/>
   <g id="_1710131187248">
    <path class="fil12" d="M21925.9 3875.94c-116.87,0.01 -211.66,-94.78 -211.66,-211.66l0 -423.33c0,-116.89 94.79,-211.68 211.67,-211.68 116.88,0 211.67,94.79 211.67,211.67l0 423.33c0,116.89 -94.79,211.68 -211.67,211.68l-0.01 -0.01z"/>
    <path class="fil12" d="M24042.56 5569.28l-423.33 0c-116.87,0 -211.66,-94.79 -211.66,-211.67 0,-116.88 94.79,-211.67 211.67,-211.67l423.32 0c116.89,0 211.68,94.79 211.68,211.67 0,116.88 -94.79,211.67 -211.67,211.67l-0.01 0z"/>
    <path class="fil12" d="M21925.9 7685.94c-116.87,0.01 -211.66,-94.78 -211.66,-211.66l0 -423.33c0,-116.89 94.79,-211.68 211.67,-211.68 116.88,0 211.67,94.79 211.67,211.67l0 423.33c0,116.89 -94.79,211.68 -211.67,211.68l-0.01 -0.01z"/>
    <path class="fil12" d="M20232.56 5569.28l-423.33 0c-116.87,0 -211.66,-94.79 -211.66,-211.67 0,-116.88 94.79,-211.67 211.67,-211.67l423.32 0c116.89,0 211.68,94.79 211.68,211.67 0,116.88 -94.79,211.67 -211.67,211.67l-0.01 0z"/>
    <path class="fil12" d="M20728.52 4371.9c-0.05,0 -0.15,0 -0.2,0 -56.06,0 -109.88,-22.34 -149.46,-62.04l-299.32 -299.3c-38.66,-39.5 -60.34,-92.68 -60.34,-147.98 0,-116.88 94.79,-211.67 211.67,-211.67 55.3,0 108.48,21.68 148,60.34l299.3 299.32c39.66,39.66 61.99,93.54 61.99,149.67 0,116.88 -94.79,211.67 -211.67,211.67 0,0 0,0 0,0l0.03 -0.01z"/>
    <path class="fil12" d="M23123.27 4371.9c-116.88,-0.02 -211.62,-94.78 -211.62,-211.66 0,-56.13 22.33,-110.01 61.99,-149.68l299.35 -299.32c39.52,-38.65 92.7,-60.33 148,-60.33 116.88,0 211.67,94.79 211.67,211.67 0,55.3 -21.68,108.48 -60.34,148l-299.38 299.3c-39.56,39.68 -93.38,62.02 -149.44,62.02 -0.05,0 -0.15,0 -0.21,0l-0.02 0z"/>
    <path class="fil12" d="M23422.59 7065.97c-0.07,0 -0.17,0 -0.25,0 -56.05,0 -109.83,-22.33 -149.39,-62l-299.3 -299.32c-41.26,-39.83 -64.62,-94.85 -64.62,-152.24 0,-116.88 94.79,-211.67 211.67,-211.67 57.39,0 112.41,23.36 152.26,64.63l299.32 299.35c39.64,39.66 61.97,93.54 61.97,149.64 0,116.88 -94.76,211.67 -211.64,211.67l-0.02 -0.06z"/>
    <path class="fil12" d="M20429.2 7065.97c-116.88,0.01 -211.64,-94.78 -211.64,-211.66 0,-56.1 22.33,-109.98 61.97,-149.65l299.32 -299.3c39.85,-41.26 94.87,-64.62 152.26,-64.62 116.88,0 211.67,94.79 211.67,211.67 0,57.39 -23.36,112.41 -64.63,152.26l-299.3 299.32c-39.54,39.65 -93.32,61.98 -149.37,61.98 -0.08,0 -0.18,0 -0.26,0l-0.02 0z"/>
   </g>
  </g>
  <g id="shield.svg">
   <g id="surface1">
    <path class="fil13" d="M21883.55 12622.77c-217.16,588.53 -545.57,1100.26 -976.25,1520.82 -490.21,478.7 -1132.12,859.07 -1907.91,1130.41 -25.46,8.87 -52.03,16.15 -78.71,21.51 -35.26,6.97 -71.14,10.72 -106.7,11.22l-6.97 0c-37.91,0 -76,-3.82 -113.79,-11.22 -26.68,-5.36 -52.88,-12.64 -78.22,-21.33 -776.71,-270.9 -1419.42,-651.09 -1910.13,-1129.78 -430.86,-420.57 -759.21,-931.99 -976.05,-1520.52 -394.31,-1070.05 -371.88,-2248.84 -353.81,-3196.11l0.3 -14.55c3.64,-78.22 5.98,-160.38 7.27,-251.12 6.6,-445.47 360.78,-814.01 806.31,-838.84 928.9,-51.84 1647.49,-354.8 2261.48,-953.26l5.36 -4.93c101.95,-93.5 230.41,-139.36 358.25,-137.45 123.27,1.6 246.06,47.4 344.37,137.45l5.24 4.93c614.12,598.46 1332.7,901.42 2261.61,953.26 445.53,24.83 799.71,393.37 806.3,838.84 1.29,91.35 3.64,173.39 7.27,251.12l0.19 6.17c18,949.05 40.31,2130.18 -355.41,3203.38zm0 0z"/>
    <path class="fil14" d="M21883.55 12622.77c-217.16,588.53 -545.57,1100.26 -976.25,1520.82 -490.21,478.7 -1132.12,859.07 -1907.91,1130.41 -25.46,8.87 -52.03,16.15 -78.71,21.51 -35.26,6.97 -71.14,10.72 -106.7,11.22l0 -8079.11c123.27,1.6 246.06,47.4 344.37,137.45l5.24 4.93c614.12,598.46 1332.7,901.42 2261.61,953.26 445.53,24.83 799.71,393.37 806.3,838.84 1.29,91.35 3.64,173.39 7.27,251.12l0.19 6.17c18,949.05 40.31,2130.18 -355.41,3203.38zm0 0z"/>
    <path class="fil15" d="M20820.39 11267.14c0,1107.84 -899.5,2009.62 -2006.41,2013.57l-7.09 0c-1110.18,0 -2013.57,-903.32 -2013.57,-2013.57 0,-1110.18 903.39,-2013.5 2013.57,-2013.5l7.09 0c1106.91,3.94 2006.41,905.72 2006.41,2013.5zm0 0z"/>
    <path class="fil16" d="M20820.39 11267.14c0,1107.84 -899.5,2009.62 -2006.41,2013.57l0 -4027.07c1106.91,3.94 2006.41,905.72 2006.41,2013.5zm0 0z"/>
    <path class="fil17" d="M19720.81 10977.19l-906.83 906.96 -195.95 195.95c-46.3,46.29 -107.01,69.41 -167.66,69.41 -60.71,0 -121.37,-23.12 -167.72,-69.41l-421.3 -421.49c-92.59,-92.58 -92.59,-242.55 0,-335.19 92.45,-92.58 242.6,-92.58 335.19,0l253.83 253.83 935.25 -935.25c92.58,-92.64 242.73,-92.64 335.19,0 92.58,92.58 92.58,242.73 0,335.19zm0 0z"/>
    <path class="fil18" d="M19720.81 10977.19l-906.83 906.96 0 -670.57 571.64 -571.58c92.58,-92.64 242.73,-92.64 335.19,0 92.58,92.58 92.58,242.73 0,335.19zm0 0z"/>
   </g>
  </g>
  <path class="fil19" d="M-62342.97 -18876.99c4676,0 8466.66,3790.66 8466.66,8466.67 0,4676.01 -3790.66,8466.66 -8466.66,8466.66 -4676.01,0 -8466.67,-3790.65 -8466.67,-8466.66 0,-4676.01 3790.66,-8466.67 8466.67,-8466.67z"/>
  <g style="clip-path:url(#id0)">
   <g>
   </g>
   <g style="clip-path:url(#id1)">
    <image x="-70178.86" y="-16552.9" width="15671.8" height="12285.13" xlink:href="Untitled-1_Images\Untitled-1_ImgID1.jpg"/>
   </g>
   <g style="clip-path:url(#id2)">
   </g>
  </g>
  <path class="fil20" d="M-62342.97 -18876.99c4676,0 8466.66,3790.66 8466.66,8466.67 0,4676.01 -3790.66,8466.66 -8466.66,8466.66 -4676.01,0 -8466.67,-3790.65 -8466.67,-8466.66 0,-4676.01 3790.66,-8466.67 8466.67,-8466.67z"/>
 </g>
</svg>
